<svg xmlns="http://www.w3.org/2000/svg" width="114" height="94" fill="none">
    <path fill="#E53025"
        d="M37.194 6s-9.813 5.525-12.503 8.603c-2.69 3.078-3.292 4.104-3.008 6.471.285 2.368 6.094 2.447 8.073 2.447 1.978 0 12.345-1.578 15.352-1.815 3.008-.237 9.18-.237 12.267 1.894 3.086 2.13 2.69 3.473 2.69 5.761 0 2.29-3.086 8.445-4.827 11.366-1.741 2.92-4.353 7.613-16.382 21.188-1.044 1.178-5.46 6.306-16.698 16.142C10.921 87.894 0 94 0 94l26.432-12.786c17.33-15.469 34.108-34.672 36.403-49.722 2.295-15.05-20.1-10.891-20.1-10.891s-10.684 1.578-12.821 1.578c-2.137 0-10.446.395-2.85-7.576l4.75-4.42L37.193 6Z" />
    <path fill="#F2E50F"
        d="M73.343 18.84 97.597 0c-11.42 11.006-16.06 17.442-20.833 29.448-4.963 16.23-4.975 25.411 0 34.673C83.032 74.095 93.788 80.191 114 86h-9.328s-7.659-2.314-11.505-3.513C63.47 73.225 60.206 47.18 73.343 18.84Z" />
    <path fill="#2B71B7"
        d="M44.451 73.366C56.719 67.775 68.373 65.86 93.157 65L101 69.926C79.196 67.346 58.412 71.802 33 84l11.451-10.634Z" />
</svg>